<svg xmlns="http://www.w3.org/2000/svg" xmlns:xlink="http://www.w3.org/1999/xlink" width="500" zoomAndPan="magnify" viewBox="0 0 375 374.999991" height="500" preserveAspectRatio="xMidYMid meet" version="1.0"><defs><g/><clipPath id="3eb01eff28"><path d="M 124.875 108 L 248 108 L 248 249 L 124.875 249 Z M 124.875 108 " clip-rule="nonzero"/></clipPath></defs><g clip-path="url(#3eb01eff28)"><path fill="#b8222e" d="M 239.871094 164.179688 L 151.546875 111.054688 C 140.132812 103.496094 124.898438 111.679688 124.898438 125.367188 L 124.898438 231.617188 C 124.898438 245.304688 140.132812 253.488281 151.546875 245.929688 L 162.28125 239.472656 C 157.1875 237.425781 153.582031 232.441406 153.582031 226.625 L 153.582031 174.585938 C 153.582031 166.953125 159.796875 160.742188 167.433594 160.742188 C 170.085938 160.742188 172.679688 161.515625 174.9375 162.984375 L 218.210938 189.011719 L 218.308594 189.078125 C 222.1875 191.644531 224.5 195.957031 224.5 200.605469 C 224.5 201.109375 224.46875 201.609375 224.417969 202.101562 L 239.871094 192.804688 C 250.121094 186.015625 250.121094 170.96875 239.871094 164.179688 " fill-opacity="1" fill-rule="nonzero"/></g><path fill="#6b6bd0" d="M 173.804688 207.949219 C 169.429688 207.949219 165.371094 204.472656 165.371094 199.527344 L 165.371094 166.425781 C 166.042969 166.253906 166.734375 166.164062 167.4375 166.164062 C 168.992188 166.164062 170.589844 166.605469 172.054688 167.574219 L 207.628906 188.96875 L 178.421875 206.535156 C 176.957031 207.507812 175.359375 207.949219 173.804688 207.949219 " fill-opacity="1" fill-rule="nonzero"/><path fill="#6b6bd0" d="M 165.371094 160.898438 C 166.027344 160.796875 166.695312 160.746094 167.378906 160.742188 C 166.695312 160.746094 166.027344 160.800781 165.371094 160.898438 M 167.386719 160.742188 C 167.390625 160.742188 167.390625 160.742188 167.394531 160.742188 C 167.390625 160.742188 167.390625 160.742188 167.386719 160.742188 M 167.40625 160.742188 C 167.410156 160.742188 167.410156 160.742188 167.414062 160.742188 C 167.410156 160.742188 167.410156 160.742188 167.40625 160.742188 " fill-opacity="1" fill-rule="nonzero"/><path fill="#6b6bd0" d="M 212.886719 185.808594 L 174.9375 162.984375 C 172.679688 161.515625 170.085938 160.742188 167.433594 160.742188 C 167.429688 160.742188 167.421875 160.742188 167.414062 160.742188 C 167.410156 160.742188 167.410156 160.742188 167.40625 160.742188 C 167.402344 160.742188 167.398438 160.742188 167.394531 160.742188 C 167.390625 160.742188 167.390625 160.742188 167.386719 160.742188 C 167.382812 160.742188 167.382812 160.742188 167.378906 160.742188 C 166.695312 160.746094 166.027344 160.796875 165.371094 160.898438 L 165.371094 147.484375 C 165.371094 142.539062 169.429688 139.0625 173.804688 139.0625 C 175.359375 139.0625 176.957031 139.503906 178.421875 140.476562 L 221.6875 166.496094 C 226.707031 169.820312 226.707031 177.191406 221.6875 180.515625 L 212.886719 185.808594 " fill-opacity="1" fill-rule="nonzero"/><g fill="#000000" fill-opacity="1"><g transform="translate(131.625772, 273.250002)"><g><path d="M 0.765625 0 L 0.765625 -17.1875 L 6 -17.1875 L 7.4375 -6.703125 L 8.875 -17.1875 L 14.15625 -17.1875 L 14.15625 0 L 11.015625 0 L 11.015625 -12.375 L 9.046875 0 L 5.953125 0 L 3.859375 -12.375 L 3.859375 0 Z M 0.765625 0 "/></g></g></g><g fill="#000000" fill-opacity="1"><g transform="translate(146.939877, 273.250002)"><g><path d="M 4.953125 0.15625 C 2.035156 0.15625 0.578125 -1.351562 0.578125 -4.375 L 0.578125 -10.265625 C 0.578125 -11.648438 0.96875 -12.75 1.75 -13.5625 C 2.53125 -14.382812 3.597656 -14.796875 4.953125 -14.796875 C 6.316406 -14.796875 7.390625 -14.382812 8.171875 -13.5625 C 8.953125 -12.75 9.34375 -11.648438 9.34375 -10.265625 L 9.34375 -4.375 C 9.34375 -1.351562 7.878906 0.15625 4.953125 0.15625 Z M 4.953125 -2.546875 C 5.234375 -2.546875 5.441406 -2.644531 5.578125 -2.84375 C 5.710938 -3.039062 5.78125 -3.3125 5.78125 -3.65625 L 5.78125 -10.8125 C 5.78125 -11.664062 5.503906 -12.09375 4.953125 -12.09375 C 4.410156 -12.09375 4.140625 -11.664062 4.140625 -10.8125 L 4.140625 -3.65625 C 4.140625 -3.3125 4.207031 -3.039062 4.34375 -2.84375 C 4.476562 -2.644531 4.679688 -2.546875 4.953125 -2.546875 Z M 4.953125 -2.546875 "/></g></g></g><g fill="#000000" fill-opacity="1"><g transform="translate(157.275951, 273.250002)"><g><path d="M 2.5625 0 L 0.21875 -14.640625 L 3.71875 -14.640625 L 4.4375 -7.234375 L 4.5625 -4.859375 L 4.703125 -7.265625 L 5.5 -14.640625 L 9 -14.640625 L 6.625 0 Z M 2.5625 0 "/></g></g></g><g fill="#000000" fill-opacity="1"><g transform="translate(166.892306, 273.250002)"><g><path d="M 0.6875 -15.625 L 0.6875 -18.0625 L 4.1875 -18.0625 L 4.1875 -15.625 Z M 0.6875 0 L 0.6875 -14.640625 L 4.1875 -14.640625 L 4.1875 0 Z M 0.6875 0 "/></g></g></g><g fill="#000000" fill-opacity="1"><g transform="translate(172.150385, 273.250002)"><g><path d="M 4.796875 0.15625 C 3.296875 0.15625 2.21875 -0.253906 1.5625 -1.078125 C 0.90625 -1.898438 0.578125 -3.132812 0.578125 -4.78125 L 0.578125 -10.65625 C 0.578125 -12.007812 0.960938 -13.035156 1.734375 -13.734375 C 2.515625 -14.441406 3.597656 -14.796875 4.984375 -14.796875 C 7.796875 -14.796875 9.203125 -13.414062 9.203125 -10.65625 L 9.203125 -9.59375 C 9.203125 -8.53125 9.1875 -7.664062 9.15625 -7 L 4.078125 -7 L 4.078125 -4.15625 C 4.078125 -3.65625 4.128906 -3.257812 4.234375 -2.96875 C 4.347656 -2.6875 4.578125 -2.546875 4.921875 -2.546875 C 5.179688 -2.546875 5.367188 -2.625 5.484375 -2.78125 C 5.597656 -2.9375 5.664062 -3.117188 5.6875 -3.328125 C 5.707031 -3.535156 5.71875 -3.835938 5.71875 -4.234375 L 5.71875 -5.65625 L 9.203125 -5.65625 L 9.203125 -4.8125 C 9.203125 -3.113281 8.867188 -1.859375 8.203125 -1.046875 C 7.546875 -0.242188 6.410156 0.15625 4.796875 0.15625 Z M 5.71875 -8.734375 L 5.71875 -10.625 C 5.71875 -11.675781 5.457031 -12.203125 4.9375 -12.203125 C 4.351562 -12.203125 4.0625 -11.675781 4.0625 -10.625 L 4.0625 -8.734375 Z M 5.71875 -8.734375 "/></g></g></g><g fill="#000000" fill-opacity="1"><g transform="translate(182.306535, 273.250002)"><g/></g></g><g fill="#000000" fill-opacity="1"><g transform="translate(187.384679, 273.250002)"><g><path d="M 2.234375 0 L 2.234375 -13.875 L 0.203125 -13.875 L 0.203125 -17.1875 L 7.71875 -17.1875 L 7.71875 -13.875 L 5.6875 -13.875 L 5.6875 0 Z M 2.234375 0 "/></g></g></g><g fill="#000000" fill-opacity="1"><g transform="translate(195.701546, 273.250002)"><g><path d="M 0.703125 -14.640625 L 4.203125 -14.640625 L 4.203125 -13.015625 C 4.367188 -13.585938 4.671875 -14.03125 5.109375 -14.34375 C 5.546875 -14.65625 6.082031 -14.8125 6.71875 -14.8125 L 6.71875 -11.90625 C 6.226562 -11.90625 5.6875 -11.832031 5.09375 -11.6875 C 4.5 -11.550781 4.203125 -11.390625 4.203125 -11.203125 L 4.203125 0 L 0.703125 0 Z M 0.703125 -14.640625 "/></g></g></g><g fill="#000000" fill-opacity="1"><g transform="translate(202.978832, 273.250002)"><g><path d="M 4.796875 0.15625 C 3.296875 0.15625 2.21875 -0.253906 1.5625 -1.078125 C 0.90625 -1.898438 0.578125 -3.132812 0.578125 -4.78125 L 0.578125 -10.65625 C 0.578125 -12.007812 0.960938 -13.035156 1.734375 -13.734375 C 2.515625 -14.441406 3.597656 -14.796875 4.984375 -14.796875 C 7.796875 -14.796875 9.203125 -13.414062 9.203125 -10.65625 L 9.203125 -9.59375 C 9.203125 -8.53125 9.1875 -7.664062 9.15625 -7 L 4.078125 -7 L 4.078125 -4.15625 C 4.078125 -3.65625 4.128906 -3.257812 4.234375 -2.96875 C 4.347656 -2.6875 4.578125 -2.546875 4.921875 -2.546875 C 5.179688 -2.546875 5.367188 -2.625 5.484375 -2.78125 C 5.597656 -2.9375 5.664062 -3.117188 5.6875 -3.328125 C 5.707031 -3.535156 5.71875 -3.835938 5.71875 -4.234375 L 5.71875 -5.65625 L 9.203125 -5.65625 L 9.203125 -4.8125 C 9.203125 -3.113281 8.867188 -1.859375 8.203125 -1.046875 C 7.546875 -0.242188 6.410156 0.15625 4.796875 0.15625 Z M 5.71875 -8.734375 L 5.71875 -10.625 C 5.71875 -11.675781 5.457031 -12.203125 4.9375 -12.203125 C 4.351562 -12.203125 4.0625 -11.675781 4.0625 -10.625 L 4.0625 -8.734375 Z M 5.71875 -8.734375 "/></g></g></g><g fill="#000000" fill-opacity="1"><g transform="translate(213.134982, 273.250002)"><g><path d="M 0.703125 -14.640625 L 4.203125 -14.640625 L 4.203125 -12.78125 C 4.347656 -13.382812 4.597656 -13.867188 4.953125 -14.234375 C 5.316406 -14.609375 5.800781 -14.796875 6.40625 -14.796875 C 7.382812 -14.796875 8.109375 -14.492188 8.578125 -13.890625 C 9.054688 -13.285156 9.296875 -12.421875 9.296875 -11.296875 L 9.296875 0 L 5.859375 0 L 5.859375 -10.9375 C 5.859375 -11.257812 5.796875 -11.53125 5.671875 -11.75 C 5.546875 -11.976562 5.347656 -12.09375 5.078125 -12.09375 C 4.722656 -12.09375 4.488281 -11.929688 4.375 -11.609375 C 4.257812 -11.285156 4.203125 -10.847656 4.203125 -10.296875 L 4.203125 0 L 0.703125 0 Z M 0.703125 -14.640625 "/></g></g></g><g fill="#000000" fill-opacity="1"><g transform="translate(223.511042, 273.250002)"><g><path d="M 3.578125 0.15625 C 2.722656 0.15625 2.078125 -0.046875 1.640625 -0.453125 C 1.210938 -0.859375 0.925781 -1.394531 0.78125 -2.0625 C 0.644531 -2.738281 0.578125 -3.601562 0.578125 -4.65625 L 0.625 -11.265625 C 0.625 -12.296875 0.882812 -13.140625 1.40625 -13.796875 C 1.9375 -14.460938 2.679688 -14.796875 3.640625 -14.796875 C 4.585938 -14.796875 5.296875 -14.484375 5.765625 -13.859375 L 5.765625 -17.28125 L 9.265625 -17.28125 L 9.265625 0 L 5.765625 0 L 5.765625 -1.5625 C 5.554688 -0.988281 5.28125 -0.554688 4.9375 -0.265625 C 4.601562 0.015625 4.148438 0.15625 3.578125 0.15625 Z M 4.921875 -2.578125 C 5.265625 -2.578125 5.488281 -2.742188 5.59375 -3.078125 C 5.707031 -3.421875 5.765625 -3.878906 5.765625 -4.453125 L 5.765625 -10.578125 C 5.765625 -11.003906 5.703125 -11.363281 5.578125 -11.65625 C 5.460938 -11.945312 5.25 -12.09375 4.9375 -12.09375 C 4.59375 -12.09375 4.363281 -11.957031 4.25 -11.6875 C 4.132812 -11.414062 4.078125 -11.046875 4.078125 -10.578125 L 4.078125 -4.421875 C 4.078125 -3.191406 4.359375 -2.578125 4.921875 -2.578125 Z M 4.921875 -2.578125 "/></g></g></g><g fill="#000000" fill-opacity="1"><g transform="translate(233.867109, 273.250002)"><g><path d="M 4.71875 0.15625 C 1.820312 0.15625 0.375 -1.304688 0.375 -4.234375 L 0.40625 -5.40625 L 3.90625 -5.40625 L 3.921875 -3.6875 C 3.921875 -3.332031 3.984375 -3.066406 4.109375 -2.890625 C 4.242188 -2.710938 4.46875 -2.625 4.78125 -2.625 C 5.25 -2.625 5.484375 -3.003906 5.484375 -3.765625 C 5.484375 -4.316406 5.367188 -4.753906 5.140625 -5.078125 C 4.921875 -5.398438 4.570312 -5.738281 4.09375 -6.09375 L 2.234375 -7.546875 C 1.597656 -8.035156 1.140625 -8.539062 0.859375 -9.0625 C 0.578125 -9.59375 0.4375 -10.335938 0.4375 -11.296875 C 0.4375 -12.046875 0.632812 -12.679688 1.03125 -13.203125 C 1.425781 -13.734375 1.945312 -14.128906 2.59375 -14.390625 C 3.25 -14.660156 3.976562 -14.796875 4.78125 -14.796875 C 7.625 -14.796875 9.046875 -13.382812 9.046875 -10.5625 L 9.046875 -10.28125 L 5.421875 -10.28125 L 5.421875 -10.84375 C 5.421875 -11.1875 5.363281 -11.476562 5.25 -11.71875 C 5.132812 -11.96875 4.945312 -12.09375 4.6875 -12.09375 C 4.4375 -12.09375 4.25 -12.023438 4.125 -11.890625 C 4 -11.753906 3.9375 -11.5625 3.9375 -11.3125 C 3.9375 -10.78125 4.144531 -10.367188 4.5625 -10.078125 L 6.71875 -8.5 C 7.488281 -7.925781 8.082031 -7.300781 8.5 -6.625 C 8.914062 -5.957031 9.125 -5.109375 9.125 -4.078125 C 9.125 -2.722656 8.734375 -1.675781 7.953125 -0.9375 C 7.179688 -0.207031 6.101562 0.15625 4.71875 0.15625 Z M 4.71875 0.15625 "/></g></g></g></svg>